<svg xmlns="http://www.w3.org/2000/svg" viewBox="0 0 34.78 34.85"><defs><style>.cls-1{fill:#0874bb;}.cls-2{fill:#e37734;}</style></defs><g id="Layer_2" data-name="Layer 2"><g id="Layer_1-2" data-name="Layer 1"><path class="cls-1" d="M4.56,10s5.5-10.3,20.1-8.4C19.76-1.2,9.36-.7,4.06,6.2A24.87,24.87,0,0,0,4.56,10Z"/><path class="cls-1" d="M24.86,4.6s10.3,5.5,8.3,20.1c2.8-4.9,2.4-15.3-4.5-20.6A24.87,24.87,0,0,0,24.86,4.6Z"/><path class="cls-1" d="M30.16,24.9s-5.5,10.2-20.1,8.3c4.9,2.8,15.3,2.5,20.6-4.5A27.07,27.07,0,0,0,30.16,24.9Z"/><path class="cls-1" d="M10,30.2s-10.2-5.5-8.3-20.1c-2.8,4.9-2.5,15.3,4.4,20.6A27,27,0,0,0,10,30.2Z"/><path class="cls-2" d="M17.36,7.6a9.8,9.8,0,1,0,9.8,9.8A9.69,9.69,0,0,0,17.36,7.6Zm0,14.8a5,5,0,1,1,5-5A5,5,0,0,1,17.36,22.4Z"/></g></g></svg>